<svg xmlns="http://www.w3.org/2000/svg" width="256" height="256"
  viewBox="0 0 256 256" role="img" aria-label="bat-star example 9">
  <rect width="256" height="256" fill="hsl(203 33% 12%)"/>
    <ellipse cx="112.17" cy="122.3"
      rx="230.4" ry="179.2" fill="hsl(191 34% 24%)" opacity="0.5"/>
    <ellipse cx="53.72" cy="231.99" rx="14.74" ry="32.77"
      transform="rotate(114.5 53.72 231.99)"
      fill="hsl(201 34% 24%)"
      opacity="0.45"/><ellipse cx="105.61" cy="209.76" rx="18.93" ry="37.37"
      transform="rotate(78.56 105.61 209.76)"
      fill="hsl(205 39% 24%)"
      opacity="0.47"/><ellipse cx="70.37" cy="219.98" rx="55.36" ry="34.87"
      transform="rotate(152.54 70.37 219.98)"
      fill="hsl(216 27% 14%)"
      opacity="0.36"/><ellipse cx="40.17" cy="103.54" rx="33.46" ry="10.77"
      transform="rotate(164.2 40.17 103.54)"
      fill="hsl(199 43% 26%)"
      opacity="0.26"/><ellipse cx="14.17" cy="197.32" rx="28.47" ry="14.93"
      transform="rotate(136.94 14.17 197.32)"
      fill="hsl(203 30% 22%)"
      opacity="0.26"/><ellipse cx="174.21" cy="182.03" rx="45.37" ry="32"
      transform="rotate(33.42 174.21 182.03)"
      fill="hsl(217 39% 21%)"
      opacity="0.35"/><ellipse cx="61.33" cy="244.6" rx="42.17" ry="21.88"
      transform="rotate(135.85 61.33 244.6)"
      fill="hsl(199 24% 19%)"
      opacity="0.26"/><ellipse cx="119.46" cy="114.64" rx="19.52" ry="22.98"
      transform="rotate(43.22 119.46 114.64)"
      fill="hsl(222 35% 15%)"
      opacity="0.27"/><ellipse cx="191.4" cy="34.4" rx="53.41" ry="21.33"
      transform="rotate(107.77 191.4 34.4)"
      fill="hsl(209 31% 17%)"
      opacity="0.23"/><ellipse cx="180.57" cy="124.35" rx="26.11" ry="35.79"
      transform="rotate(168.59 180.57 124.35)"
      fill="hsl(200 25% 23%)"
      opacity="0.4"/><ellipse cx="13.7" cy="63.36" rx="51.25" ry="9.84"
      transform="rotate(7.55 13.7 63.36)"
      fill="hsl(220 27% 30%)"
      opacity="0.4"/><ellipse cx="104.86" cy="120.34" rx="17.33" ry="20.04"
      transform="rotate(59.6 104.86 120.34)"
      fill="hsl(210 36% 17%)"
      opacity="0.37"/><ellipse cx="102.49" cy="253.56" rx="36.42" ry="35.87"
      transform="rotate(103.57 102.49 253.56)"
      fill="hsl(222 44% 25%)"
      opacity="0.2"/><ellipse cx="248.63" cy="125.4" rx="18.53" ry="15.35"
      transform="rotate(113.67 248.63 125.4)"
      fill="hsl(217 29% 18%)"
      opacity="0.43"/><ellipse cx="101.75" cy="120.72" rx="29.41" ry="34.3"
      transform="rotate(84.91 101.75 120.72)"
      fill="hsl(219 44% 17%)"
      opacity="0.31"/><ellipse cx="222" cy="156.81" rx="39.95" ry="27.13"
      transform="rotate(58.35 222 156.81)"
      fill="hsl(208 32% 21%)"
      opacity="0.44"/><circle cx="161.51" cy="2.07" r="1.05"
      fill="#cfe9e4" opacity="0.15"/><circle cx="53.21" cy="218.03" r="1.17"
      fill="#cfe9e4" opacity="0.09"/><circle cx="17.37" cy="203.72" r="1.37"
      fill="#cfe9e4" opacity="0.1"/><circle cx="1.98" cy="105.99" r="1.84"
      fill="#cfe9e4" opacity="0.15"/><circle cx="52.87" cy="78.62" r="1.46"
      fill="#cfe9e4" opacity="0.17"/><circle cx="94.8" cy="34.75" r="0.81"
      fill="#cfe9e4" opacity="0.11"/><circle cx="212.74" cy="5.15" r="1.61"
      fill="#cfe9e4" opacity="0.16"/><circle cx="174.19" cy="156.27" r="1.16"
      fill="#cfe9e4" opacity="0.05"/><circle cx="130.83" cy="243.71" r="1.57"
      fill="#cfe9e4" opacity="0.16"/><circle cx="191.06" cy="236.46" r="1.78"
      fill="#cfe9e4" opacity="0.05"/><circle cx="175.64" cy="198.33" r="1.01"
      fill="#cfe9e4" opacity="0.15"/><circle cx="19.04" cy="169.47" r="0.87"
      fill="#cfe9e4" opacity="0.17"/><circle cx="119.09" cy="96.14" r="1.55"
      fill="#cfe9e4" opacity="0.13"/><circle cx="52.9" cy="232.61" r="0.62"
      fill="#cfe9e4" opacity="0.18"/><circle cx="220.55" cy="40.41" r="0.92"
      fill="#cfe9e4" opacity="0.14"/><circle cx="216.31" cy="54.8" r="1.48"
      fill="#cfe9e4" opacity="0.16"/><circle cx="83.32" cy="45.32" r="0.96"
      fill="#cfe9e4" opacity="0.16"/><circle cx="43.22" cy="195.69" r="0.78"
      fill="#cfe9e4" opacity="0.05"/><circle cx="92.2" cy="152.69" r="1.7"
      fill="#cfe9e4" opacity="0.09"/><circle cx="197.22" cy="138.86" r="1.1"
      fill="#cfe9e4" opacity="0.21"/><circle cx="237.59" cy="198.89" r="0.42"
      fill="#cfe9e4" opacity="0.1"/><circle cx="248.99" cy="215.17" r="0.96"
      fill="#cfe9e4" opacity="0.06"/><circle cx="172.78" cy="114.19" r="0.96"
      fill="#cfe9e4" opacity="0.14"/><circle cx="252.32" cy="150.05" r="0.54"
      fill="#cfe9e4" opacity="0.1"/><circle cx="53.61" cy="218.01" r="1.89"
      fill="#cfe9e4" opacity="0.13"/><circle cx="204.03" cy="243.01" r="1.32"
      fill="#cfe9e4" opacity="0.12"/><circle cx="82.24" cy="61.17" r="0.82"
      fill="#cfe9e4" opacity="0.15"/><circle cx="48.75" cy="0.59" r="1.2"
      fill="#cfe9e4" opacity="0.07"/><circle cx="34.42" cy="241.74" r="0.69"
      fill="#cfe9e4" opacity="0.07"/><circle cx="175.61" cy="221.14" r="1.58"
      fill="#cfe9e4" opacity="0.14"/><circle cx="6.38" cy="37.75" r="0.97"
      fill="#cfe9e4" opacity="0.2"/><circle cx="52.59" cy="185.2" r="1.16"
      fill="#cfe9e4" opacity="0.16"/><circle cx="32.7" cy="115.18" r="1.73"
      fill="#cfe9e4" opacity="0.06"/><circle cx="200.46" cy="128.52" r="1.65"
      fill="#cfe9e4" opacity="0.21"/><circle cx="243.92" cy="15.38" r="1.71"
      fill="#cfe9e4" opacity="0.1"/><circle cx="41.69" cy="137.87" r="1.28"
      fill="#cfe9e4" opacity="0.16"/><circle cx="179.68" cy="137.75" r="0.99"
      fill="#cfe9e4" opacity="0.11"/><circle cx="19.67" cy="80.87" r="1.75"
      fill="#cfe9e4" opacity="0.06"/><circle cx="161.91" cy="5.07" r="0.8"
      fill="#cfe9e4" opacity="0.09"/><circle cx="122.65" cy="103.65" r="1.89"
      fill="#cfe9e4" opacity="0.19"/>
  <ellipse cx="140.91" cy="160.12" rx="62.18" ry="22.26"
     fill="#000" opacity="0.24"/>
    <g transform="translate(140.91 124.12) rotate(296.67)">
      <polygon points="87.35,0 27.56,20.02 24.22,74.53 -10.53,32.39 -61.64,44.78 -34.06,0 -58.62,-42.59 -10.53,-32.39 27.32,-84.07 27.56,-20.02" fill="hsl(21 70% 57%)" stroke="hsl(13 62% 30%)" stroke-width="3"
               stroke-linejoin="round"/>
      <circle cx="-29.2" cy="-4.2"
      r="1.45" fill="hsl(35 70% 59%)"
      opacity="0.31"/><circle cx="-29.28" cy="-54.25"
      r="3.31" fill="hsl(35 70% 41%)"
      opacity="0.39"/><circle cx="9.06" cy="31.23"
      r="3.42" fill="hsl(35 70% 56%)"
      opacity="0.46"/><circle cx="-24.64" cy="5.86"
      r="1.45" fill="hsl(35 70% 42%)"
      opacity="0.63"/><circle cx="29.15" cy="-49.15"
      r="4.17" fill="hsl(35 70% 35%)"
      opacity="0.54"/><circle cx="-25.6" cy="-20.7"
      r="4.45" fill="hsl(35 70% 54%)"
      opacity="0.43"/><circle cx="-24.06" cy="45.81"
      r="2.39" fill="hsl(35 70% 53%)"
      opacity="0.46"/><circle cx="-10.16" cy="-7.29"
      r="3.26" fill="hsl(35 70% 54%)"
      opacity="0.49"/><circle cx="23.92" cy="-16.25"
      r="2.47" fill="hsl(35 70% 44%)"
      opacity="0.36"/><circle cx="5.67" cy="-31.9"
      r="3.24" fill="hsl(35 70% 55%)"
      opacity="0.56"/><circle cx="-56.79" cy="20.22"
      r="3.54" fill="hsl(35 70% 58%)"
      opacity="0.54"/><circle cx="-49.23" cy="40.34"
      r="3.22" fill="hsl(35 70% 50%)"
      opacity="0.74"/><circle cx="-2.19" cy="-3.34"
      r="4.47" fill="hsl(35 70% 54%)"
      opacity="0.36"/><circle cx="28.45" cy="3.48"
      r="2.41" fill="hsl(35 70% 42%)"
      opacity="0.65"/><circle cx="3.21" cy="36.01"
      r="1.59" fill="hsl(35 70% 53%)"
      opacity="0.63"/><circle cx="-17.85" cy="9.15"
      r="3.12" fill="hsl(35 70% 41%)"
      opacity="0.51"/><circle cx="-11.6" cy="-4.77"
      r="4.07" fill="hsl(35 70% 50%)"
      opacity="0.49"/><circle cx="14" cy="-15.97"
      r="2.79" fill="hsl(35 70% 44%)"
      opacity="0.71"/><circle cx="11.97" cy="0.78"
      r="2.2" fill="hsl(35 70% 58%)"
      opacity="0.37"/><circle cx="-1.78" cy="4.4"
      r="3.16" fill="hsl(35 70% 35%)"
      opacity="0.58"/><circle cx="8.32" cy="-14.21"
      r="4.64" fill="hsl(35 70% 59%)"
      opacity="0.63"/><circle cx="53.59" cy="21.55"
      r="4.12" fill="hsl(35 70% 52%)"
      opacity="0.55"/><circle cx="-58.4" cy="-23.82"
      r="2.59" fill="hsl(35 70% 41%)"
      opacity="0.63"/><circle cx="1.71" cy="6.7"
      r="4.75" fill="hsl(35 70% 59%)"
      opacity="0.45"/><circle cx="-30.93" cy="-52.38"
      r="2.44" fill="hsl(35 70% 41%)"
      opacity="0.58"/><circle cx="-4.14" cy="-14.55"
      r="2.94" fill="hsl(35 70% 52%)"
      opacity="0.52"/><circle cx="-8.31" cy="1.7"
      r="2.62" fill="hsl(35 70% 41%)"
      opacity="0.6"/><circle cx="36.11" cy="-2.39"
      r="1.52" fill="hsl(35 70% 57%)"
      opacity="0.61"/><circle cx="44.82" cy="-14.78"
      r="4.01" fill="hsl(35 70% 49%)"
      opacity="0.5"/><circle cx="4.64" cy="-4.01"
      r="2.36" fill="hsl(35 70% 41%)"
      opacity="0.43"/><circle cx="-12.08" cy="-0.76"
      r="3.84" fill="hsl(35 70% 57%)"
      opacity="0.34"/><circle cx="-0.34" cy="-12.96"
      r="2.19" fill="hsl(35 70% 46%)"
      opacity="0.67"/><circle cx="2.08" cy="-62.09"
      r="3.29" fill="hsl(35 70% 41%)"
      opacity="0.72"/><circle cx="50.15" cy="25.88"
      r="4.22" fill="hsl(35 70% 60%)"
      opacity="0.6"/>
      <circle r="14.31" fill="hsl(29 46% 38%)" opacity="0.7"/>
    </g>
</svg>