<svg xmlns="http://www.w3.org/2000/svg" width="256" height="256"
  viewBox="0 0 256 256" role="img" aria-label="red-urchin example 1">
  <rect width="256" height="256" fill="hsl(206 34% 13%)"/>
    <ellipse cx="160.4" cy="88.68"
      rx="230.4" ry="179.2" fill="hsl(194 33% 26%)" opacity="0.5"/>
    <ellipse cx="179.08" cy="115.69" rx="17.47" ry="14.19"
      transform="rotate(6.76 179.08 115.69)"
      fill="hsl(223 38% 28%)"
      opacity="0.41"/><ellipse cx="26.87" cy="89.62" rx="35.3" ry="15.78"
      transform="rotate(8.53 26.87 89.62)"
      fill="hsl(224 44% 21%)"
      opacity="0.44"/><ellipse cx="108.04" cy="118.94" rx="35.91" ry="23.77"
      transform="rotate(64.22 108.04 118.94)"
      fill="hsl(222 44% 30%)"
      opacity="0.24"/><ellipse cx="18.71" cy="135.74" rx="37.72" ry="37.89"
      transform="rotate(23.4 18.71 135.74)"
      fill="hsl(205 31% 17%)"
      opacity="0.32"/><ellipse cx="34.81" cy="188.81" rx="19.17" ry="36.17"
      transform="rotate(25.15 34.81 188.81)"
      fill="hsl(219 26% 22%)"
      opacity="0.37"/><ellipse cx="245.45" cy="184.81" rx="12.04" ry="8.27"
      transform="rotate(4.6 245.45 184.81)"
      fill="hsl(208 43% 26%)"
      opacity="0.47"/><ellipse cx="98" cy="200.84" rx="25.9" ry="22.31"
      transform="rotate(144.57 98 200.84)"
      fill="hsl(222 43% 23%)"
      opacity="0.26"/><ellipse cx="208.13" cy="87.25" rx="38.03" ry="18.71"
      transform="rotate(90.66 208.13 87.25)"
      fill="hsl(217 30% 17%)"
      opacity="0.32"/><ellipse cx="119.43" cy="59.17" rx="26.76" ry="22.63"
      transform="rotate(149.19 119.43 59.17)"
      fill="hsl(212 37% 19%)"
      opacity="0.23"/><ellipse cx="236.97" cy="19.34" rx="33.28" ry="34.92"
      transform="rotate(98.71 236.97 19.34)"
      fill="hsl(207 35% 27%)"
      opacity="0.43"/><ellipse cx="135.56" cy="34.48" rx="13.89" ry="23.03"
      transform="rotate(15.54 135.56 34.48)"
      fill="hsl(211 41% 22%)"
      opacity="0.47"/><ellipse cx="97.14" cy="243.37" rx="43.65" ry="22.55"
      transform="rotate(123.13 97.14 243.37)"
      fill="hsl(219 35% 25%)"
      opacity="0.25"/><ellipse cx="244.61" cy="121.39" rx="47.25" ry="22.82"
      transform="rotate(22.48 244.61 121.39)"
      fill="hsl(215 34% 29%)"
      opacity="0.44"/><ellipse cx="64.08" cy="70.27" rx="56.54" ry="36.21"
      transform="rotate(82.78 64.08 70.27)"
      fill="hsl(206 43% 19%)"
      opacity="0.37"/><ellipse cx="38.08" cy="15.62" rx="17.58" ry="14.93"
      transform="rotate(120.02 38.08 15.62)"
      fill="hsl(208 25% 28%)"
      opacity="0.39"/><ellipse cx="95.94" cy="74.46" rx="30.03" ry="27.99"
      transform="rotate(157.16 95.94 74.46)"
      fill="hsl(218 35% 22%)"
      opacity="0.4"/><circle cx="195.06" cy="246.17" r="1.31"
      fill="#cfe9e4" opacity="0.2"/><circle cx="197.15" cy="223.98" r="1.82"
      fill="#cfe9e4" opacity="0.06"/><circle cx="84.17" cy="176.66" r="1.58"
      fill="#cfe9e4" opacity="0.08"/><circle cx="253.13" cy="157.37" r="1.34"
      fill="#cfe9e4" opacity="0.05"/><circle cx="59.77" cy="225.96" r="1.42"
      fill="#cfe9e4" opacity="0.12"/><circle cx="230.44" cy="139" r="1.73"
      fill="#cfe9e4" opacity="0.18"/><circle cx="8.68" cy="191.92" r="1.54"
      fill="#cfe9e4" opacity="0.13"/><circle cx="133.77" cy="51.86" r="0.98"
      fill="#cfe9e4" opacity="0.19"/><circle cx="17" cy="196.85" r="1.63"
      fill="#cfe9e4" opacity="0.09"/><circle cx="202.36" cy="32.8" r="0.5"
      fill="#cfe9e4" opacity="0.07"/><circle cx="126.59" cy="199.11" r="1.33"
      fill="#cfe9e4" opacity="0.13"/><circle cx="180.93" cy="123.92" r="1.03"
      fill="#cfe9e4" opacity="0.14"/><circle cx="209.27" cy="165.46" r="1.7"
      fill="#cfe9e4" opacity="0.1"/><circle cx="165.03" cy="25.3" r="1.11"
      fill="#cfe9e4" opacity="0.2"/><circle cx="208.11" cy="65.45" r="0.72"
      fill="#cfe9e4" opacity="0.08"/><circle cx="75.6" cy="244.69" r="1.51"
      fill="#cfe9e4" opacity="0.08"/><circle cx="135.54" cy="79.68" r="1.51"
      fill="#cfe9e4" opacity="0.06"/><circle cx="253.34" cy="84.88" r="1.01"
      fill="#cfe9e4" opacity="0.2"/><circle cx="117.68" cy="63.17" r="1.02"
      fill="#cfe9e4" opacity="0.16"/><circle cx="212.56" cy="213.49" r="0.83"
      fill="#cfe9e4" opacity="0.05"/><circle cx="187.12" cy="37.69" r="1.09"
      fill="#cfe9e4" opacity="0.1"/><circle cx="186.55" cy="139.84" r="1.29"
      fill="#cfe9e4" opacity="0.07"/><circle cx="23.49" cy="172.41" r="1.88"
      fill="#cfe9e4" opacity="0.15"/><circle cx="157.85" cy="46.21" r="0.41"
      fill="#cfe9e4" opacity="0.14"/><circle cx="191.11" cy="135.91" r="0.96"
      fill="#cfe9e4" opacity="0.12"/><circle cx="70.98" cy="112.09" r="1.42"
      fill="#cfe9e4" opacity="0.18"/><circle cx="5.9" cy="5.61" r="1.61"
      fill="#cfe9e4" opacity="0.2"/><circle cx="114.15" cy="122.4" r="1.6"
      fill="#cfe9e4" opacity="0.07"/><circle cx="125.57" cy="205.65" r="1.5"
      fill="#cfe9e4" opacity="0.21"/><circle cx="193.66" cy="70.75" r="1.18"
      fill="#cfe9e4" opacity="0.06"/><circle cx="162.41" cy="42.12" r="0.97"
      fill="#cfe9e4" opacity="0.15"/><circle cx="188.24" cy="174.64" r="1.02"
      fill="#cfe9e4" opacity="0.2"/><circle cx="225.96" cy="213.92" r="0.52"
      fill="#cfe9e4" opacity="0.1"/><circle cx="184.84" cy="30.7" r="1.74"
      fill="#cfe9e4" opacity="0.18"/><circle cx="91.14" cy="67.79" r="1.42"
      fill="#cfe9e4" opacity="0.09"/><circle cx="191.2" cy="88.13" r="1.37"
      fill="#cfe9e4" opacity="0.08"/><circle cx="117.75" cy="227.43" r="1.58"
      fill="#cfe9e4" opacity="0.07"/><circle cx="228.11" cy="156.59" r="1.47"
      fill="#cfe9e4" opacity="0.06"/><circle cx="185.8" cy="155.75" r="1.79"
      fill="#cfe9e4" opacity="0.08"/><circle cx="242.27" cy="27.36" r="1.6"
      fill="#cfe9e4" opacity="0.06"/>
  <ellipse cx="129.08" cy="170.61" rx="58.46" ry="20.92"
     fill="#000" opacity="0.24"/>
    <g transform="translate(129.08 136.76)">
      <line x1="32.81" y1="0.58"
      x2="65.55" y2="1.15"
      stroke="hsl(360 69% 35%)"
      stroke-width="2.74" stroke-linecap="round"/><line x1="32.38" y1="5.34"
      x2="62.04" y2="10.22"
      stroke="hsl(360 73% 28%)"
      stroke-width="3.51" stroke-linecap="round"/><line x1="31.82" y1="8.02"
      x2="69.8" y2="17.58"
      stroke="hsl(360 79% 38%)"
      stroke-width="2.34" stroke-linecap="round"/><line x1="30.09" y1="13.1"
      x2="55.1" y2="24"
      stroke="hsl(360 65% 42%)"
      stroke-width="2.64" stroke-linecap="round"/><line x1="27.88" y1="17.32"
      x2="59.89" y2="37.21"
      stroke="hsl(360 69% 47%)"
      stroke-width="2.14" stroke-linecap="round"/><line x1="26.51" y1="19.34"
      x2="63.69" y2="46.47"
      stroke="hsl(360 71% 31%)"
      stroke-width="4.16" stroke-linecap="round"/><line x1="23.28" y1="23.14"
      x2="61.02" y2="60.64"
      stroke="hsl(360 65% 46%)"
      stroke-width="2.42" stroke-linecap="round"/><line x1="21.64" y1="24.67"
      x2="48.47" y2="55.27"
      stroke="hsl(360 65% 27%)"
      stroke-width="2.9" stroke-linecap="round"/><line x1="17.95" y1="27.47"
      x2="44.79" y2="68.56"
      stroke="hsl(360 65% 46%)"
      stroke-width="4.08" stroke-linecap="round"/><line x1="13.66" y1="29.84"
      x2="30.58" y2="66.82"
      stroke="hsl(360 79% 38%)"
      stroke-width="1.74" stroke-linecap="round"/><line x1="9.81" y1="31.32"
      x2="15.67" y2="50.01"
      stroke="hsl(360 61% 41%)"
      stroke-width="4.08" stroke-linecap="round"/><line x1="7.65" y1="31.91"
      x2="15.29" y2="63.76"
      stroke="hsl(360 67% 44%)"
      stroke-width="2.8" stroke-linecap="round"/><line x1="1.27" y1="32.79"
      x2="2.17" y2="55.97"
      stroke="hsl(360 70% 27%)"
      stroke-width="2.06" stroke-linecap="round"/><line x1="-2.61" y1="32.71"
      x2="-5.65" y2="70.86"
      stroke="hsl(360 75% 36%)"
      stroke-width="2.15" stroke-linecap="round"/><line x1="-5.9" y1="32.28"
      x2="-9.55" y2="52.23"
      stroke="hsl(360 77% 43%)"
      stroke-width="3.61" stroke-linecap="round"/><line x1="-8.15" y1="31.79"
      x2="-20.81" y2="81.14"
      stroke="hsl(360 78% 36%)"
      stroke-width="2.34" stroke-linecap="round"/><line x1="-14.32" y1="29.53"
      x2="-29.22" y2="60.25"
      stroke="hsl(360 78% 30%)"
      stroke-width="2.98" stroke-linecap="round"/><line x1="-17.55" y1="27.73"
      x2="-38.81" y2="61.34"
      stroke="hsl(360 63% 27%)"
      stroke-width="4.1" stroke-linecap="round"/><line x1="-19.36" y1="26.5"
      x2="-44.16" y2="60.46"
      stroke="hsl(360 75% 34%)"
      stroke-width="3.95" stroke-linecap="round"/><line x1="-23.54" y1="22.87"
      x2="-60.7" y2="58.97"
      stroke="hsl(360 76% 41%)"
      stroke-width="2.06" stroke-linecap="round"/><line x1="-25.91" y1="20.14"
      x2="-48.84" y2="37.95"
      stroke="hsl(360 75% 36%)"
      stroke-width="4.07" stroke-linecap="round"/><line x1="-28.47" y1="16.32"
      x2="-56.39" y2="32.33"
      stroke="hsl(360 78% 36%)"
      stroke-width="2.09" stroke-linecap="round"/><line x1="-30.11" y1="13.05"
      x2="-75.64" y2="32.77"
      stroke="hsl(360 64% 47%)"
      stroke-width="4.05" stroke-linecap="round"/><line x1="-30.8" y1="11.34"
      x2="-51.29" y2="18.89"
      stroke="hsl(360 61% 40%)"
      stroke-width="3.52" stroke-linecap="round"/><line x1="-31.91" y1="7.65"
      x2="-59.61" y2="14.3"
      stroke="hsl(360 76% 41%)"
      stroke-width="1.94" stroke-linecap="round"/><line x1="-32.61" y1="3.73"
      x2="-70.19" y2="8.03"
      stroke="hsl(360 77% 43%)"
      stroke-width="1.98" stroke-linecap="round"/><line x1="-32.8" y1="-1"
      x2="-67.71" y2="-2.07"
      stroke="hsl(360 73% 38%)"
      stroke-width="3.84" stroke-linecap="round"/><line x1="-32.57" y1="-4.03"
      x2="-84.45" y2="-10.46"
      stroke="hsl(360 61% 29%)"
      stroke-width="2.59" stroke-linecap="round"/><line x1="-31.76" y1="-8.26"
      x2="-68.71" y2="-17.86"
      stroke="hsl(360 63% 33%)"
      stroke-width="3.59" stroke-linecap="round"/><line x1="-29.94" y1="-13.45"
      x2="-55.47" y2="-24.91"
      stroke="hsl(360 77% 34%)"
      stroke-width="2.72" stroke-linecap="round"/><line x1="-28.92" y1="-15.52"
      x2="-56.99" y2="-30.59"
      stroke="hsl(360 68% 45%)"
      stroke-width="3.3" stroke-linecap="round"/><line x1="-26.63" y1="-19.17"
      x2="-66.83" y2="-48.12"
      stroke="hsl(360 61% 26%)"
      stroke-width="3.79" stroke-linecap="round"/><line x1="-22.79" y1="-23.61"
      x2="-47.95" y2="-49.67"
      stroke="hsl(360 76% 41%)"
      stroke-width="1.79" stroke-linecap="round"/><line x1="-20.15" y1="-25.9"
      x2="-50.71" y2="-65.19"
      stroke="hsl(360 76% 47%)"
      stroke-width="3.7" stroke-linecap="round"/><line x1="-18" y1="-27.44"
      x2="-38.86" y2="-59.25"
      stroke="hsl(360 73% 27%)"
      stroke-width="3.45" stroke-linecap="round"/><line x1="-12.6" y1="-30.3"
      x2="-20.36" y2="-48.99"
      stroke="hsl(360 71% 30%)"
      stroke-width="1.7" stroke-linecap="round"/><line x1="-8.97" y1="-31.57"
      x2="-18.27" y2="-64.26"
      stroke="hsl(360 62% 40%)"
      stroke-width="3.73" stroke-linecap="round"/><line x1="-5.05" y1="-32.43"
      x2="-8.08" y2="-51.88"
      stroke="hsl(360 75% 43%)"
      stroke-width="1.69" stroke-linecap="round"/><line x1="-2.29" y1="-32.74"
      x2="-3.87" y2="-55.39"
      stroke="hsl(360 70% 44%)"
      stroke-width="2.1" stroke-linecap="round"/><line x1="1.44" y1="-32.79"
      x2="3.52" y2="-80.4"
      stroke="hsl(360 73% 42%)"
      stroke-width="2.55" stroke-linecap="round"/><line x1="6.69" y1="-32.13"
      x2="11.4" y2="-54.74"
      stroke="hsl(360 78% 40%)"
      stroke-width="2.92" stroke-linecap="round"/><line x1="9.14" y1="-31.52"
      x2="19.88" y2="-68.53"
      stroke="hsl(360 63% 27%)"
      stroke-width="1.96" stroke-linecap="round"/><line x1="13.13" y1="-30.08"
      x2="32.73" y2="-74.97"
      stroke="hsl(360 65% 33%)"
      stroke-width="3.2" stroke-linecap="round"/><line x1="16.65" y1="-28.28"
      x2="36.22" y2="-61.53"
      stroke="hsl(360 76% 39%)"
      stroke-width="3.71" stroke-linecap="round"/><line x1="20.37" y1="-25.74"
      x2="41.1" y2="-51.94"
      stroke="hsl(360 79% 46%)"
      stroke-width="2.31" stroke-linecap="round"/><line x1="22.47" y1="-23.92"
      x2="44.11" y2="-46.97"
      stroke="hsl(360 64% 41%)"
      stroke-width="2.17" stroke-linecap="round"/><line x1="26.41" y1="-19.48"
      x2="42.03" y2="-31"
      stroke="hsl(360 61% 34%)"
      stroke-width="2.18" stroke-linecap="round"/><line x1="27.97" y1="-17.17"
      x2="69.17" y2="-42.46"
      stroke="hsl(360 72% 38%)"
      stroke-width="2.06" stroke-linecap="round"/><line x1="30.15" y1="-12.95"
      x2="70.61" y2="-30.33"
      stroke="hsl(360 73% 39%)"
      stroke-width="3.39" stroke-linecap="round"/><line x1="30.82" y1="-11.27"
      x2="57.03" y2="-20.85"
      stroke="hsl(360 61% 31%)"
      stroke-width="2.37" stroke-linecap="round"/><line x1="32.2" y1="-6.36"
      x2="56.04" y2="-11.08"
      stroke="hsl(360 71% 46%)"
      stroke-width="3.3" stroke-linecap="round"/><line x1="32.75" y1="-2.17"
      x2="57.09" y2="-3.78"
      stroke="hsl(360 68% 39%)"
      stroke-width="1.86" stroke-linecap="round"/>
      <circle r="41.02" fill="hsl(360 54% 24%)"/>
      <circle r="29.54" fill="hsl(360 60% 31%)" opacity="0.85"/>
    </g>
</svg>