<svg xmlns="http://www.w3.org/2000/svg" width="256" height="256"
  viewBox="0 0 256 256" role="img" aria-label="red-urchin example 4">
  <rect width="256" height="256" fill="hsl(184 31% 15%)"/>
    <ellipse cx="158.25" cy="70.12"
      rx="230.4" ry="179.2" fill="hsl(172 36% 22%)" opacity="0.5"/>
    <ellipse cx="98.02" cy="24.64" rx="21.98" ry="38"
      transform="rotate(166.51 98.02 24.64)"
      fill="hsl(182 40% 30%)"
      opacity="0.22"/><ellipse cx="147.8" cy="44.96" rx="30.37" ry="20.98"
      transform="rotate(58.31 147.8 44.96)"
      fill="hsl(180 33% 27%)"
      opacity="0.2"/><ellipse cx="75.77" cy="13.81" rx="54.15" ry="19.34"
      transform="rotate(62.58 75.77 13.81)"
      fill="hsl(187 27% 27%)"
      opacity="0.39"/><ellipse cx="123.03" cy="64.93" rx="24.63" ry="18"
      transform="rotate(151.11 123.03 64.93)"
      fill="hsl(186 37% 25%)"
      opacity="0.4"/><ellipse cx="35.89" cy="108.66" rx="54.21" ry="27.99"
      transform="rotate(17.84 35.89 108.66)"
      fill="hsl(182 40% 15%)"
      opacity="0.39"/><ellipse cx="30.52" cy="34.63" rx="46.05" ry="8.4"
      transform="rotate(149.68 30.52 34.63)"
      fill="hsl(182 25% 17%)"
      opacity="0.36"/><ellipse cx="246.49" cy="178.85" rx="53.21" ry="18.97"
      transform="rotate(113.3 246.49 178.85)"
      fill="hsl(198 35% 19%)"
      opacity="0.41"/><ellipse cx="57.7" cy="47.93" rx="50.91" ry="30.72"
      transform="rotate(32.41 57.7 47.93)"
      fill="hsl(184 35% 20%)"
      opacity="0.4"/><ellipse cx="223.83" cy="196.3" rx="53.84" ry="14.2"
      transform="rotate(177.93 223.83 196.3)"
      fill="hsl(200 40% 24%)"
      opacity="0.25"/><ellipse cx="233.37" cy="210.88" rx="56" ry="19.08"
      transform="rotate(101.84 233.37 210.88)"
      fill="hsl(178 43% 26%)"
      opacity="0.23"/><ellipse cx="101.69" cy="236.08" rx="31.5" ry="27.14"
      transform="rotate(16.12 101.69 236.08)"
      fill="hsl(191 33% 21%)"
      opacity="0.37"/><ellipse cx="181.76" cy="58.8" rx="35.91" ry="32.99"
      transform="rotate(55.73 181.76 58.8)"
      fill="hsl(195 29% 22%)"
      opacity="0.35"/><ellipse cx="251.95" cy="250.77" rx="16.58" ry="32.28"
      transform="rotate(155.56 251.95 250.77)"
      fill="hsl(197 30% 19%)"
      opacity="0.34"/><ellipse cx="199.51" cy="180.4" rx="46.08" ry="30.35"
      transform="rotate(161.5 199.51 180.4)"
      fill="hsl(185 32% 15%)"
      opacity="0.48"/><ellipse cx="4.11" cy="124.74" rx="16.28" ry="24.35"
      transform="rotate(79.78 4.11 124.74)"
      fill="hsl(200 33% 26%)"
      opacity="0.47"/><ellipse cx="173.74" cy="195.79" rx="15.93" ry="13.27"
      transform="rotate(35.8 173.74 195.79)"
      fill="hsl(184 43% 29%)"
      opacity="0.31"/><circle cx="38.07" cy="85.62" r="0.76"
      fill="#cfe9e4" opacity="0.21"/><circle cx="125.1" cy="24.88" r="1.59"
      fill="#cfe9e4" opacity="0.14"/><circle cx="86.39" cy="131.06" r="1.27"
      fill="#cfe9e4" opacity="0.08"/><circle cx="140.61" cy="248.84" r="1.32"
      fill="#cfe9e4" opacity="0.15"/><circle cx="222.44" cy="202.27" r="1.21"
      fill="#cfe9e4" opacity="0.17"/><circle cx="125.04" cy="104.16" r="1.16"
      fill="#cfe9e4" opacity="0.13"/><circle cx="138.63" cy="243.11" r="1.39"
      fill="#cfe9e4" opacity="0.17"/><circle cx="131.46" cy="8.91" r="0.74"
      fill="#cfe9e4" opacity="0.14"/><circle cx="22.49" cy="113.19" r="0.79"
      fill="#cfe9e4" opacity="0.07"/><circle cx="72.28" cy="86.54" r="0.44"
      fill="#cfe9e4" opacity="0.1"/><circle cx="34.64" cy="96.79" r="0.89"
      fill="#cfe9e4" opacity="0.14"/><circle cx="160.05" cy="221.19" r="1.43"
      fill="#cfe9e4" opacity="0.07"/><circle cx="195.11" cy="234.43" r="1.44"
      fill="#cfe9e4" opacity="0.19"/><circle cx="234.34" cy="241.79" r="1.79"
      fill="#cfe9e4" opacity="0.06"/><circle cx="108.62" cy="175.19" r="1.44"
      fill="#cfe9e4" opacity="0.14"/><circle cx="34.56" cy="233.15" r="1.7"
      fill="#cfe9e4" opacity="0.16"/><circle cx="145.82" cy="203.97" r="0.43"
      fill="#cfe9e4" opacity="0.19"/><circle cx="86.64" cy="77.71" r="1.71"
      fill="#cfe9e4" opacity="0.15"/><circle cx="178.06" cy="237.31" r="1.57"
      fill="#cfe9e4" opacity="0.16"/><circle cx="4.57" cy="163.45" r="0.93"
      fill="#cfe9e4" opacity="0.05"/><circle cx="83.73" cy="127.89" r="1.72"
      fill="#cfe9e4" opacity="0.14"/><circle cx="216.74" cy="193.82" r="1.13"
      fill="#cfe9e4" opacity="0.08"/><circle cx="172.95" cy="99.45" r="0.67"
      fill="#cfe9e4" opacity="0.1"/><circle cx="135.13" cy="152.38" r="1.14"
      fill="#cfe9e4" opacity="0.14"/><circle cx="17.33" cy="210.9" r="0.92"
      fill="#cfe9e4" opacity="0.14"/><circle cx="162.71" cy="229.41" r="0.55"
      fill="#cfe9e4" opacity="0.13"/><circle cx="19.4" cy="75.7" r="0.5"
      fill="#cfe9e4" opacity="0.08"/><circle cx="250.74" cy="7.04" r="0.92"
      fill="#cfe9e4" opacity="0.08"/><circle cx="41.55" cy="95.01" r="1.87"
      fill="#cfe9e4" opacity="0.16"/><circle cx="33" cy="245.17" r="0.47"
      fill="#cfe9e4" opacity="0.19"/><circle cx="134.13" cy="233.59" r="0.41"
      fill="#cfe9e4" opacity="0.2"/><circle cx="188.81" cy="7.71" r="0.57"
      fill="#cfe9e4" opacity="0.09"/><circle cx="167.2" cy="65.21" r="0.62"
      fill="#cfe9e4" opacity="0.11"/><circle cx="128.8" cy="20.07" r="0.42"
      fill="#cfe9e4" opacity="0.06"/><circle cx="233.08" cy="159.63" r="1.8"
      fill="#cfe9e4" opacity="0.21"/><circle cx="9.23" cy="155.16" r="1.5"
      fill="#cfe9e4" opacity="0.14"/><circle cx="206.89" cy="32.28" r="1.48"
      fill="#cfe9e4" opacity="0.15"/><circle cx="13.16" cy="56.05" r="0.66"
      fill="#cfe9e4" opacity="0.07"/><circle cx="124.83" cy="53.31" r="1.64"
      fill="#cfe9e4" opacity="0.2"/><circle cx="253.88" cy="42.46" r="1.36"
      fill="#cfe9e4" opacity="0.14"/>
  <ellipse cx="123.91" cy="155.35" rx="52.22" ry="18.69"
     fill="#000" opacity="0.24"/>
    <g transform="translate(123.91 125.12)">
      <line x1="29.21" y1="2.51"
      x2="66.14" y2="5.68"
      stroke="hsl(353 75% 31%)"
      stroke-width="2.47" stroke-linecap="round"/><line x1="28.79" y1="5.53"
      x2="65.14" y2="12.51"
      stroke="hsl(353 73% 32%)"
      stroke-width="2.69" stroke-linecap="round"/><line x1="27.37" y1="10.51"
      x2="67.29" y2="25.83"
      stroke="hsl(353 72% 31%)"
      stroke-width="3.18" stroke-linecap="round"/><line x1="26.54" y1="12.44"
      x2="60.71" y2="28.45"
      stroke="hsl(353 71% 38%)"
      stroke-width="3.28" stroke-linecap="round"/><line x1="23.83" y1="17.07"
      x2="57.3" y2="41.05"
      stroke="hsl(353 64% 31%)"
      stroke-width="1.71" stroke-linecap="round"/><line x1="21.79" y1="19.61"
      x2="55.54" y2="49.96"
      stroke="hsl(353 63% 44%)"
      stroke-width="3.5" stroke-linecap="round"/><line x1="17.25" y1="23.71"
      x2="42.77" y2="58.8"
      stroke="hsl(353 79% 36%)"
      stroke-width="2.01" stroke-linecap="round"/><line x1="13.75" y1="25.89"
      x2="26.43" y2="49.76"
      stroke="hsl(353 75% 27%)"
      stroke-width="2.53" stroke-linecap="round"/><line x1="10.94" y1="27.2"
      x2="26.64" y2="66.22"
      stroke="hsl(353 75% 36%)"
      stroke-width="1.8" stroke-linecap="round"/><line x1="6.01" y1="28.69"
      x2="13.48" y2="64.38"
      stroke="hsl(353 65% 45%)"
      stroke-width="2.86" stroke-linecap="round"/><line x1="2.2" y1="29.23"
      x2="5.15" y2="68.42"
      stroke="hsl(353 73% 28%)"
      stroke-width="2.33" stroke-linecap="round"/><line x1="-1.33" y1="29.28"
      x2="-3.46" y2="75.97"
      stroke="hsl(353 76% 46%)"
      stroke-width="2.45" stroke-linecap="round"/><line x1="-5.07" y1="28.87"
      x2="-11.33" y2="64.48"
      stroke="hsl(353 68% 42%)"
      stroke-width="1.71" stroke-linecap="round"/><line x1="-9.41" y1="27.76"
      x2="-22.44" y2="66.18"
      stroke="hsl(353 79% 45%)"
      stroke-width="1.67" stroke-linecap="round"/><line x1="-13.18" y1="26.18"
      x2="-33.86" y2="67.27"
      stroke="hsl(353 75% 43%)"
      stroke-width="4.2" stroke-linecap="round"/><line x1="-17.28" y1="23.68"
      x2="-30.48" y2="41.77"
      stroke="hsl(353 75% 40%)"
      stroke-width="2.25" stroke-linecap="round"/><line x1="-20.9" y1="20.55"
      x2="-39.29" y2="38.63"
      stroke="hsl(353 70% 44%)"
      stroke-width="3.17" stroke-linecap="round"/><line x1="-23.47" y1="17.56"
      x2="-60.23" y2="45.07"
      stroke="hsl(353 69% 28%)"
      stroke-width="1.94" stroke-linecap="round"/><line x1="-25.75" y1="14.01"
      x2="-58.4" y2="31.78"
      stroke="hsl(353 70% 43%)"
      stroke-width="3.78" stroke-linecap="round"/><line x1="-27.51" y1="10.12"
      x2="-58.09" y2="21.36"
      stroke="hsl(353 64% 42%)"
      stroke-width="2.35" stroke-linecap="round"/><line x1="-28.27" y1="7.77"
      x2="-51.47" y2="14.15"
      stroke="hsl(353 79% 40%)"
      stroke-width="2.59" stroke-linecap="round"/><line x1="-29.07" y1="3.77"
      x2="-65.68" y2="8.51"
      stroke="hsl(353 77% 48%)"
      stroke-width="3.03" stroke-linecap="round"/><line x1="-29.28" y1="-1.5"
      x2="-56.05" y2="-2.88"
      stroke="hsl(353 76% 28%)"
      stroke-width="4.08" stroke-linecap="round"/><line x1="-28.71" y1="-5.93"
      x2="-69.16" y2="-14.3"
      stroke="hsl(353 71% 40%)"
      stroke-width="2.03" stroke-linecap="round"/><line x1="-28.06" y1="-8.5"
      x2="-72.62" y2="-22"
      stroke="hsl(353 69% 27%)"
      stroke-width="2.57" stroke-linecap="round"/><line x1="-25.97" y1="-13.59"
      x2="-56.14" y2="-29.38"
      stroke="hsl(353 79% 48%)"
      stroke-width="2.11" stroke-linecap="round"/><line x1="-24.09" y1="-16.71"
      x2="-59.67" y2="-41.38"
      stroke="hsl(353 67% 42%)"
      stroke-width="4" stroke-linecap="round"/><line x1="-20.89" y1="-20.57"
      x2="-35.12" y2="-34.59"
      stroke="hsl(353 67% 38%)"
      stroke-width="3.74" stroke-linecap="round"/><line x1="-18.87" y1="-22.43"
      x2="-33.42" y2="-39.73"
      stroke="hsl(353 68% 34%)"
      stroke-width="1.97" stroke-linecap="round"/><line x1="-15.1" y1="-25.13"
      x2="-32.22" y2="-53.61"
      stroke="hsl(353 68% 45%)"
      stroke-width="2.94" stroke-linecap="round"/><line x1="-10.55" y1="-27.35"
      x2="-23.41" y2="-60.68"
      stroke="hsl(353 67% 34%)"
      stroke-width="1.63" stroke-linecap="round"/><line x1="-7.11" y1="-28.44"
      x2="-17.14" y2="-68.6"
      stroke="hsl(353 66% 31%)"
      stroke-width="3.79" stroke-linecap="round"/><line x1="-1.76" y1="-29.26"
      x2="-3.74" y2="-62.26"
      stroke="hsl(353 71% 41%)"
      stroke-width="1.9" stroke-linecap="round"/><line x1="0.11" y1="-29.31"
      x2="0.17" y2="-46.93"
      stroke="hsl(353 66% 42%)"
      stroke-width="3.54" stroke-linecap="round"/><line x1="5.46" y1="-28.8"
      x2="14.16" y2="-74.69"
      stroke="hsl(353 60% 39%)"
      stroke-width="1.93" stroke-linecap="round"/><line x1="10.55" y1="-27.35"
      x2="21.09" y2="-54.65"
      stroke="hsl(353 65% 32%)"
      stroke-width="4.05" stroke-linecap="round"/><line x1="14.39" y1="-25.54"
      x2="35.05" y2="-62.19"
      stroke="hsl(353 68% 30%)"
      stroke-width="2.33" stroke-linecap="round"/><line x1="16.8" y1="-24.03"
      x2="26.89" y2="-38.47"
      stroke="hsl(353 64% 36%)"
      stroke-width="3.97" stroke-linecap="round"/><line x1="20.91" y1="-20.54"
      x2="51.68" y2="-50.76"
      stroke="hsl(353 65% 31%)"
      stroke-width="3.61" stroke-linecap="round"/><line x1="22.87" y1="-18.34"
      x2="43.88" y2="-35.2"
      stroke="hsl(353 70% 35%)"
      stroke-width="3.89" stroke-linecap="round"/><line x1="25.04" y1="-15.24"
      x2="60.19" y2="-36.64"
      stroke="hsl(353 77% 32%)"
      stroke-width="2.91" stroke-linecap="round"/><line x1="27.43" y1="-10.34"
      x2="54.11" y2="-20.41"
      stroke="hsl(353 62% 46%)"
      stroke-width="3.6" stroke-linecap="round"/><line x1="28.34" y1="-7.52"
      x2="71.71" y2="-19.02"
      stroke="hsl(353 77% 27%)"
      stroke-width="2.38" stroke-linecap="round"/><line x1="29.26" y1="-1.72"
      x2="74.44" y2="-4.38"
      stroke="hsl(353 72% 37%)"
      stroke-width="3.61" stroke-linecap="round"/>
      <circle r="36.64" fill="hsl(353 54% 24%)"/>
      <circle r="26.38" fill="hsl(353 60% 31%)" opacity="0.85"/>
    </g>
</svg>