<svg xmlns="http://www.w3.org/2000/svg" width="256" height="256"
  viewBox="0 0 256 256" role="img" aria-label="rockfish example 6">
  <rect width="256" height="256" fill="hsl(167 27% 13%)"/>
    <ellipse cx="173.66" cy="79.04"
      rx="230.4" ry="179.2" fill="hsl(155 35% 30%)" opacity="0.5"/>
    <ellipse cx="11.13" cy="80.73" rx="18.02" ry="33.88"
      transform="rotate(73.69 11.13 80.73)"
      fill="hsl(169 34% 29%)"
      opacity="0.24"/><ellipse cx="146.57" cy="158.54" rx="27.61" ry="19.28"
      transform="rotate(17.72 146.57 158.54)"
      fill="hsl(187 37% 29%)"
      opacity="0.35"/><ellipse cx="22.99" cy="89.36" rx="21.36" ry="25.97"
      transform="rotate(107.35 22.99 89.36)"
      fill="hsl(180 29% 19%)"
      opacity="0.33"/><ellipse cx="102.04" cy="145.99" rx="50.59" ry="35.23"
      transform="rotate(82.93 102.04 145.99)"
      fill="hsl(183 29% 15%)"
      opacity="0.23"/><ellipse cx="21.91" cy="204.73" rx="36.45" ry="31.49"
      transform="rotate(93.65 21.91 204.73)"
      fill="hsl(166 32% 21%)"
      opacity="0.23"/><ellipse cx="160.44" cy="59.05" rx="47.14" ry="15.97"
      transform="rotate(104.67 160.44 59.05)"
      fill="hsl(180 27% 14%)"
      opacity="0.35"/><ellipse cx="163" cy="221.6" rx="46.3" ry="29.84"
      transform="rotate(147.59 163 221.6)"
      fill="hsl(186 36% 27%)"
      opacity="0.44"/><ellipse cx="149.82" cy="38.21" rx="30.65" ry="22.38"
      transform="rotate(11.31 149.82 38.21)"
      fill="hsl(183 26% 15%)"
      opacity="0.2"/><ellipse cx="17.67" cy="19.21" rx="28.67" ry="34.43"
      transform="rotate(85.88 17.67 19.21)"
      fill="hsl(181 31% 22%)"
      opacity="0.26"/><ellipse cx="237.72" cy="118.54" rx="49.64" ry="13.49"
      transform="rotate(67.89 237.72 118.54)"
      fill="hsl(165 27% 21%)"
      opacity="0.3"/><ellipse cx="183.9" cy="76.92" rx="14.87" ry="14.16"
      transform="rotate(164.74 183.9 76.92)"
      fill="hsl(182 32% 26%)"
      opacity="0.38"/><ellipse cx="158.57" cy="21.26" rx="42.36" ry="35.81"
      transform="rotate(153.16 158.57 21.26)"
      fill="hsl(177 43% 22%)"
      opacity="0.46"/><ellipse cx="73.13" cy="72.16" rx="35.21" ry="33.18"
      transform="rotate(43.47 73.13 72.16)"
      fill="hsl(186 35% 26%)"
      opacity="0.27"/><ellipse cx="62.54" cy="161.51" rx="25.73" ry="18.25"
      transform="rotate(95.22 62.54 161.51)"
      fill="hsl(179 43% 17%)"
      opacity="0.37"/><ellipse cx="221.44" cy="239.61" rx="21.33" ry="32.2"
      transform="rotate(50.92 221.44 239.61)"
      fill="hsl(177 39% 24%)"
      opacity="0.39"/><ellipse cx="227.39" cy="119.29" rx="33.98" ry="35.47"
      transform="rotate(23.59 227.39 119.29)"
      fill="hsl(166 30% 18%)"
      opacity="0.39"/><circle cx="227.48" cy="172.47" r="0.44"
      fill="#cfe9e4" opacity="0.15"/><circle cx="212.67" cy="63.64" r="0.76"
      fill="#cfe9e4" opacity="0.07"/><circle cx="177.26" cy="143" r="1.56"
      fill="#cfe9e4" opacity="0.17"/><circle cx="66.81" cy="175.39" r="1.49"
      fill="#cfe9e4" opacity="0.11"/><circle cx="149.62" cy="213.17" r="0.95"
      fill="#cfe9e4" opacity="0.18"/><circle cx="210.57" cy="215.03" r="0.74"
      fill="#cfe9e4" opacity="0.12"/><circle cx="164.28" cy="49.76" r="0.72"
      fill="#cfe9e4" opacity="0.09"/><circle cx="57.43" cy="156.4" r="0.65"
      fill="#cfe9e4" opacity="0.17"/><circle cx="211.71" cy="177.36" r="1.2"
      fill="#cfe9e4" opacity="0.11"/><circle cx="210.2" cy="200.62" r="0.47"
      fill="#cfe9e4" opacity="0.08"/><circle cx="255.41" cy="4.94" r="0.93"
      fill="#cfe9e4" opacity="0.11"/><circle cx="103.44" cy="192.47" r="0.82"
      fill="#cfe9e4" opacity="0.11"/><circle cx="64.11" cy="227.21" r="1.71"
      fill="#cfe9e4" opacity="0.08"/><circle cx="82.96" cy="141.01" r="0.47"
      fill="#cfe9e4" opacity="0.09"/><circle cx="92.56" cy="60.71" r="1.75"
      fill="#cfe9e4" opacity="0.06"/><circle cx="120.72" cy="99.35" r="0.47"
      fill="#cfe9e4" opacity="0.17"/><circle cx="100.78" cy="39" r="1.5"
      fill="#cfe9e4" opacity="0.15"/><circle cx="213.69" cy="249.24" r="0.86"
      fill="#cfe9e4" opacity="0.18"/><circle cx="178.96" cy="225.46" r="1.06"
      fill="#cfe9e4" opacity="0.06"/><circle cx="197.41" cy="196.75" r="0.89"
      fill="#cfe9e4" opacity="0.14"/><circle cx="189.71" cy="60.08" r="1"
      fill="#cfe9e4" opacity="0.1"/><circle cx="160.2" cy="125.82" r="0.53"
      fill="#cfe9e4" opacity="0.07"/><circle cx="187.35" cy="189.35" r="0.51"
      fill="#cfe9e4" opacity="0.19"/><circle cx="151.01" cy="133.18" r="1.46"
      fill="#cfe9e4" opacity="0.18"/><circle cx="100.39" cy="252.21" r="1.32"
      fill="#cfe9e4" opacity="0.07"/><circle cx="239.87" cy="102.72" r="1.41"
      fill="#cfe9e4" opacity="0.1"/><circle cx="52.71" cy="76.12" r="1.7"
      fill="#cfe9e4" opacity="0.14"/><circle cx="89.44" cy="75.72" r="1.6"
      fill="#cfe9e4" opacity="0.21"/><circle cx="174.01" cy="34.69" r="1.01"
      fill="#cfe9e4" opacity="0.21"/><circle cx="75.84" cy="250.76" r="0.51"
      fill="#cfe9e4" opacity="0.1"/><circle cx="60.74" cy="229.69" r="0.45"
      fill="#cfe9e4" opacity="0.11"/><circle cx="192.5" cy="112.66" r="1.12"
      fill="#cfe9e4" opacity="0.18"/><circle cx="64.64" cy="16.52" r="0.72"
      fill="#cfe9e4" opacity="0.15"/><circle cx="247.32" cy="102.04" r="0.77"
      fill="#cfe9e4" opacity="0.2"/><circle cx="123.77" cy="14.97" r="1.24"
      fill="#cfe9e4" opacity="0.12"/><circle cx="174.03" cy="148.44" r="1.43"
      fill="#cfe9e4" opacity="0.2"/><circle cx="172.22" cy="49.33" r="1.79"
      fill="#cfe9e4" opacity="0.15"/><circle cx="223.33" cy="125.05" r="1.21"
      fill="#cfe9e4" opacity="0.21"/><circle cx="1.62" cy="146.06" r="0.55"
      fill="#cfe9e4" opacity="0.06"/><circle cx="40.3" cy="11.29" r="0.77"
      fill="#cfe9e4" opacity="0.06"/>
  <ellipse cx="137.19" cy="170.31" rx="55.08" ry="19.71"
     fill="#000" opacity="0.24"/>
    <g transform="translate(137.19 138.43) rotate(5.14) scale(-1 1)">
      <path d="M -54.81 0 Q -21.08 -59.85 31.62 -17.96
               Q 52.7 0 31.62 20.35
               Q -21.08 55.06 -54.81 0 Z"
            fill="hsl(34 46% 47%)"/>
      <path d="M -54.81 0 L -90.65 -35.91
               L -82.22 0 L -90.65 35.91 Z" fill="hsl(34 46% 47%)"/>
      <path d="M -31.62 -43.09 L 2.11 -74.82
               L 16.87 -29.93 Z" fill="hsl(24 46% 34%)"/>
      <ellipse cx="2.11" cy="22.74" rx="21.08" ry="11.97"
               fill="hsl(46 34% 62%)" opacity="0.5"/>
      <ellipse cx="-42.16" cy="-7.18" rx="8"
      ry="25.83" fill="hsl(18 50% 26%)"
      opacity="0.32"/><ellipse cx="-24.6" cy="-7.18" rx="4.79"
      ry="23.42" fill="hsl(18 50% 26%)"
      opacity="0.48"/><ellipse cx="-7.03" cy="-7.18" rx="4.57"
      ry="27.6" fill="hsl(18 50% 26%)"
      opacity="0.34"/><ellipse cx="10.54" cy="-7.18" rx="3.7"
      ry="25.55" fill="hsl(18 50% 26%)"
      opacity="0.49"/><ellipse cx="28.11" cy="-7.18" rx="5.54"
      ry="27.55" fill="hsl(18 50% 26%)"
      opacity="0.36"/>
      <circle cx="29.51" cy="-16.76" r="5.45" fill="#f4f1e6"/>
      <circle cx="30.57" cy="-16.76" r="2.18" fill="#101418"/>
    </g>
</svg>