<svg xmlns="http://www.w3.org/2000/svg" width="256" height="256"
  viewBox="0 0 256 256" role="img" aria-label="rockfish example 2">
  <rect width="256" height="256" fill="hsl(160 35% 17%)"/>
    <ellipse cx="88.15" cy="107.62"
      rx="230.4" ry="179.2" fill="hsl(148 43% 29%)" opacity="0.5"/>
    <ellipse cx="88.06" cy="197.76" rx="14.38" ry="20.09"
      transform="rotate(36.18 88.06 197.76)"
      fill="hsl(159 29% 18%)"
      opacity="0.3"/><ellipse cx="189.49" cy="97.28" rx="39.33" ry="30.13"
      transform="rotate(27.42 189.49 97.28)"
      fill="hsl(156 28% 26%)"
      opacity="0.24"/><ellipse cx="194.49" cy="177.7" rx="34.92" ry="10.68"
      transform="rotate(5.48 194.49 177.7)"
      fill="hsl(178 35% 28%)"
      opacity="0.43"/><ellipse cx="179.56" cy="70.93" rx="26.13" ry="18.57"
      transform="rotate(35.3 179.56 70.93)"
      fill="hsl(163 26% 26%)"
      opacity="0.34"/><ellipse cx="170.6" cy="54.74" rx="30.87" ry="8.59"
      transform="rotate(70.72 170.6 54.74)"
      fill="hsl(163 31% 18%)"
      opacity="0.26"/><ellipse cx="176.71" cy="38.71" rx="32.81" ry="16.04"
      transform="rotate(11.13 176.71 38.71)"
      fill="hsl(155 30% 22%)"
      opacity="0.31"/><ellipse cx="174.85" cy="222.49" rx="35.97" ry="22.43"
      transform="rotate(139.31 174.85 222.49)"
      fill="hsl(173 33% 24%)"
      opacity="0.46"/><ellipse cx="43.99" cy="70.24" rx="52.85" ry="10.88"
      transform="rotate(13.95 43.99 70.24)"
      fill="hsl(179 39% 29%)"
      opacity="0.29"/><ellipse cx="60.61" cy="190.53" rx="33.79" ry="27.31"
      transform="rotate(59.7 60.61 190.53)"
      fill="hsl(179 26% 17%)"
      opacity="0.27"/><ellipse cx="44.08" cy="224.32" rx="42.92" ry="31.53"
      transform="rotate(135.19 44.08 224.32)"
      fill="hsl(168 37% 23%)"
      opacity="0.21"/><ellipse cx="126.46" cy="19.76" rx="26.83" ry="28.35"
      transform="rotate(76.32 126.46 19.76)"
      fill="hsl(175 43% 22%)"
      opacity="0.31"/><ellipse cx="96.38" cy="64.08" rx="21" ry="10.78"
      transform="rotate(40.28 96.38 64.08)"
      fill="hsl(176 37% 15%)"
      opacity="0.36"/><ellipse cx="130.89" cy="96.88" rx="20.79" ry="26.27"
      transform="rotate(136.03 130.89 96.88)"
      fill="hsl(173 33% 28%)"
      opacity="0.23"/><ellipse cx="136.92" cy="133.97" rx="43.03" ry="14.22"
      transform="rotate(105.05 136.92 133.97)"
      fill="hsl(169 44% 15%)"
      opacity="0.34"/><ellipse cx="57.57" cy="47.23" rx="55.78" ry="16.06"
      transform="rotate(125.22 57.57 47.23)"
      fill="hsl(177 39% 28%)"
      opacity="0.2"/><ellipse cx="75.66" cy="180.2" rx="48.12" ry="31.29"
      transform="rotate(62.26 75.66 180.2)"
      fill="hsl(156 33% 18%)"
      opacity="0.33"/><circle cx="232.28" cy="227.21" r="0.83"
      fill="#cfe9e4" opacity="0.13"/><circle cx="125.62" cy="80.17" r="1.88"
      fill="#cfe9e4" opacity="0.12"/><circle cx="68.24" cy="217.03" r="1.9"
      fill="#cfe9e4" opacity="0.19"/><circle cx="210.24" cy="3.78" r="0.66"
      fill="#cfe9e4" opacity="0.15"/><circle cx="183.96" cy="153.87" r="0.66"
      fill="#cfe9e4" opacity="0.06"/><circle cx="245.22" cy="152.81" r="1.13"
      fill="#cfe9e4" opacity="0.1"/><circle cx="96.92" cy="84.37" r="1.27"
      fill="#cfe9e4" opacity="0.16"/><circle cx="246.73" cy="172.58" r="1.81"
      fill="#cfe9e4" opacity="0.18"/><circle cx="102.53" cy="159.85" r="1.03"
      fill="#cfe9e4" opacity="0.21"/><circle cx="189.54" cy="156.58" r="1.8"
      fill="#cfe9e4" opacity="0.13"/><circle cx="117.34" cy="137.31" r="1.24"
      fill="#cfe9e4" opacity="0.18"/><circle cx="112.54" cy="130.52" r="1.48"
      fill="#cfe9e4" opacity="0.18"/><circle cx="121.46" cy="135.37" r="1.32"
      fill="#cfe9e4" opacity="0.12"/><circle cx="6.8" cy="4.18" r="0.68"
      fill="#cfe9e4" opacity="0.07"/><circle cx="91.34" cy="83.92" r="0.74"
      fill="#cfe9e4" opacity="0.1"/><circle cx="64.01" cy="131.91" r="0.57"
      fill="#cfe9e4" opacity="0.07"/><circle cx="210.36" cy="229.55" r="1.82"
      fill="#cfe9e4" opacity="0.11"/><circle cx="138.33" cy="169.04" r="0.97"
      fill="#cfe9e4" opacity="0.06"/><circle cx="131.39" cy="248.55" r="0.96"
      fill="#cfe9e4" opacity="0.2"/><circle cx="83.11" cy="143.93" r="1.79"
      fill="#cfe9e4" opacity="0.15"/><circle cx="145.16" cy="242.62" r="0.92"
      fill="#cfe9e4" opacity="0.08"/><circle cx="116.87" cy="248.75" r="0.54"
      fill="#cfe9e4" opacity="0.2"/><circle cx="45.58" cy="196.11" r="0.54"
      fill="#cfe9e4" opacity="0.16"/><circle cx="124.39" cy="16.03" r="1.34"
      fill="#cfe9e4" opacity="0.07"/><circle cx="169.37" cy="5.13" r="0.76"
      fill="#cfe9e4" opacity="0.08"/><circle cx="43.36" cy="54.69" r="1.28"
      fill="#cfe9e4" opacity="0.12"/><circle cx="182.21" cy="18.3" r="1.86"
      fill="#cfe9e4" opacity="0.17"/><circle cx="8.34" cy="44.65" r="1.14"
      fill="#cfe9e4" opacity="0.05"/><circle cx="211.25" cy="182.68" r="0.95"
      fill="#cfe9e4" opacity="0.06"/><circle cx="81.24" cy="120.76" r="1.77"
      fill="#cfe9e4" opacity="0.14"/><circle cx="178.19" cy="76.05" r="0.85"
      fill="#cfe9e4" opacity="0.06"/><circle cx="42.28" cy="41.22" r="1.31"
      fill="#cfe9e4" opacity="0.11"/><circle cx="105.79" cy="54.17" r="1"
      fill="#cfe9e4" opacity="0.18"/><circle cx="233.26" cy="24.76" r="1.85"
      fill="#cfe9e4" opacity="0.07"/><circle cx="8.7" cy="212.4" r="0.92"
      fill="#cfe9e4" opacity="0.14"/><circle cx="64.84" cy="220.78" r="0.83"
      fill="#cfe9e4" opacity="0.08"/><circle cx="65.77" cy="74.73" r="0.88"
      fill="#cfe9e4" opacity="0.12"/><circle cx="199.92" cy="156.05" r="1.14"
      fill="#cfe9e4" opacity="0.05"/><circle cx="86.9" cy="85.56" r="1.25"
      fill="#cfe9e4" opacity="0.15"/><circle cx="239.43" cy="109.31" r="0.71"
      fill="#cfe9e4" opacity="0.11"/>
  <ellipse cx="120.97" cy="154.54" rx="59.66" ry="21.35"
     fill="#000" opacity="0.24"/>
    <g transform="translate(120.97 120) rotate(1.35) scale(1 1)">
      <path d="M -59.37 0 Q -22.84 -60.25 34.25 -18.07
               Q 57.09 0 34.25 20.48
               Q -22.84 55.43 -59.37 0 Z"
            fill="hsl(29 61% 51%)"/>
      <path d="M -59.37 0 L -98.19 -36.15
               L -89.06 0 L -98.19 36.15 Z" fill="hsl(29 61% 51%)"/>
      <path d="M -34.25 -43.38 L 2.28 -75.31
               L 18.27 -30.12 Z" fill="hsl(19 46% 34%)"/>
      <ellipse cx="2.28" cy="22.89" rx="22.84" ry="12.05"
               fill="hsl(41 34% 62%)" opacity="0.5"/>
      <ellipse cx="-45.67" cy="-7.23" rx="6.99"
      ry="31.53" fill="hsl(13 50% 26%)"
      opacity="0.53"/><ellipse cx="-26.64" cy="-7.23" rx="5.18"
      ry="26.71" fill="hsl(13 50% 26%)"
      opacity="0.34"/><ellipse cx="-7.61" cy="-7.23" rx="7.52"
      ry="22.78" fill="hsl(13 50% 26%)"
      opacity="0.52"/><ellipse cx="11.42" cy="-7.23" rx="6.41"
      ry="27.68" fill="hsl(13 50% 26%)"
      opacity="0.54"/><ellipse cx="30.45" cy="-7.23" rx="4.46"
      ry="24.64" fill="hsl(13 50% 26%)"
      opacity="0.49"/>
      <circle cx="31.97" cy="-16.87" r="5.78" fill="#f4f1e6"/>
      <circle cx="33.11" cy="-16.87" r="2.57" fill="#101418"/>
    </g>
</svg>