<svg xmlns="http://www.w3.org/2000/svg" width="256" height="256"
  viewBox="0 0 256 256" role="img" aria-label="rockfish example 9">
  <rect width="256" height="256" fill="hsl(152 27% 14%)"/>
    <ellipse cx="120.48" cy="120.12"
      rx="230.4" ry="179.2" fill="hsl(140 44% 23%)" opacity="0.5"/>
    <ellipse cx="59.92" cy="77" rx="47.58" ry="24.38"
      transform="rotate(164.19 59.92 77)"
      fill="hsl(169 33% 25%)"
      opacity="0.21"/><ellipse cx="74.17" cy="136.96" rx="50.7" ry="36.52"
      transform="rotate(135.86 74.17 136.96)"
      fill="hsl(157 31% 27%)"
      opacity="0.21"/><ellipse cx="53.72" cy="27.64" rx="21.74" ry="22.75"
      transform="rotate(81.33 53.72 27.64)"
      fill="hsl(163 38% 14%)"
      opacity="0.35"/><ellipse cx="52.74" cy="48.52" rx="19.12" ry="27.08"
      transform="rotate(98.18 52.74 48.52)"
      fill="hsl(149 25% 15%)"
      opacity="0.35"/><ellipse cx="95.69" cy="143.65" rx="35.18" ry="25.31"
      transform="rotate(11.18 95.69 143.65)"
      fill="hsl(154 33% 29%)"
      opacity="0.3"/><ellipse cx="13.45" cy="78.98" rx="29.33" ry="15.55"
      transform="rotate(94.14 13.45 78.98)"
      fill="hsl(152 36% 18%)"
      opacity="0.39"/><ellipse cx="18.1" cy="35.98" rx="29.59" ry="13.51"
      transform="rotate(48.54 18.1 35.98)"
      fill="hsl(161 31% 19%)"
      opacity="0.43"/><ellipse cx="125.43" cy="138.16" rx="36.26" ry="13.42"
      transform="rotate(141.53 125.43 138.16)"
      fill="hsl(159 24% 28%)"
      opacity="0.37"/><ellipse cx="73.15" cy="24.77" rx="51.89" ry="31.19"
      transform="rotate(26.3 73.15 24.77)"
      fill="hsl(155 32% 15%)"
      opacity="0.41"/><ellipse cx="144.89" cy="39.43" rx="29.45" ry="25.76"
      transform="rotate(37.66 144.89 39.43)"
      fill="hsl(155 42% 22%)"
      opacity="0.44"/><ellipse cx="234.98" cy="52.59" rx="29.02" ry="11.33"
      transform="rotate(57 234.98 52.59)"
      fill="hsl(167 27% 18%)"
      opacity="0.32"/><ellipse cx="250.73" cy="115.32" rx="37.45" ry="29.06"
      transform="rotate(22.56 250.73 115.32)"
      fill="hsl(154 34% 21%)"
      opacity="0.42"/><ellipse cx="119.08" cy="181.09" rx="54.77" ry="31.76"
      transform="rotate(119.7 119.08 181.09)"
      fill="hsl(161 32% 25%)"
      opacity="0.21"/><ellipse cx="178.91" cy="116.59" rx="23.17" ry="15.92"
      transform="rotate(131.45 178.91 116.59)"
      fill="hsl(161 27% 26%)"
      opacity="0.21"/><ellipse cx="31.59" cy="4.88" rx="51.64" ry="10.75"
      transform="rotate(28.2 31.59 4.88)"
      fill="hsl(161 24% 17%)"
      opacity="0.44"/><ellipse cx="127.81" cy="58.19" rx="42.91" ry="15.86"
      transform="rotate(42 127.81 58.19)"
      fill="hsl(148 29% 16%)"
      opacity="0.37"/><circle cx="64.49" cy="112.5" r="1.07"
      fill="#cfe9e4" opacity="0.12"/><circle cx="164.47" cy="226.5" r="1.58"
      fill="#cfe9e4" opacity="0.12"/><circle cx="238.55" cy="0.07" r="0.77"
      fill="#cfe9e4" opacity="0.16"/><circle cx="54.68" cy="205.46" r="0.82"
      fill="#cfe9e4" opacity="0.13"/><circle cx="211.67" cy="14.92" r="0.56"
      fill="#cfe9e4" opacity="0.18"/><circle cx="156.12" cy="83.8" r="0.47"
      fill="#cfe9e4" opacity="0.18"/><circle cx="151.48" cy="65.72" r="1.65"
      fill="#cfe9e4" opacity="0.18"/><circle cx="33.64" cy="230.34" r="0.89"
      fill="#cfe9e4" opacity="0.13"/><circle cx="139.19" cy="94.42" r="0.81"
      fill="#cfe9e4" opacity="0.17"/><circle cx="13.72" cy="255.05" r="1.81"
      fill="#cfe9e4" opacity="0.06"/><circle cx="150.59" cy="140.83" r="1.57"
      fill="#cfe9e4" opacity="0.18"/><circle cx="161.41" cy="40.4" r="0.93"
      fill="#cfe9e4" opacity="0.12"/><circle cx="10.44" cy="100.89" r="1.71"
      fill="#cfe9e4" opacity="0.05"/><circle cx="204.96" cy="253.91" r="0.68"
      fill="#cfe9e4" opacity="0.07"/><circle cx="99.8" cy="204.53" r="1.81"
      fill="#cfe9e4" opacity="0.09"/><circle cx="206.46" cy="151.69" r="0.77"
      fill="#cfe9e4" opacity="0.17"/><circle cx="237.94" cy="135.51" r="1.39"
      fill="#cfe9e4" opacity="0.15"/><circle cx="211.32" cy="147.97" r="1.02"
      fill="#cfe9e4" opacity="0.11"/><circle cx="15.51" cy="89.95" r="1.79"
      fill="#cfe9e4" opacity="0.06"/><circle cx="52.02" cy="105.66" r="1.28"
      fill="#cfe9e4" opacity="0.1"/><circle cx="232.61" cy="175.44" r="1.72"
      fill="#cfe9e4" opacity="0.14"/><circle cx="218.09" cy="162.62" r="0.72"
      fill="#cfe9e4" opacity="0.14"/><circle cx="87.32" cy="160.92" r="1"
      fill="#cfe9e4" opacity="0.2"/><circle cx="1.77" cy="212.42" r="0.78"
      fill="#cfe9e4" opacity="0.07"/><circle cx="234.34" cy="6.89" r="1.52"
      fill="#cfe9e4" opacity="0.14"/><circle cx="60.12" cy="225.83" r="1.55"
      fill="#cfe9e4" opacity="0.08"/><circle cx="215.49" cy="103.84" r="1.54"
      fill="#cfe9e4" opacity="0.1"/><circle cx="89.88" cy="185.77" r="1.37"
      fill="#cfe9e4" opacity="0.17"/><circle cx="85.06" cy="16.16" r="0.68"
      fill="#cfe9e4" opacity="0.1"/><circle cx="7.16" cy="204.68" r="1.9"
      fill="#cfe9e4" opacity="0.1"/><circle cx="1.83" cy="71.31" r="1.67"
      fill="#cfe9e4" opacity="0.17"/><circle cx="200.76" cy="24.11" r="1.82"
      fill="#cfe9e4" opacity="0.2"/><circle cx="155.04" cy="19.93" r="1.15"
      fill="#cfe9e4" opacity="0.16"/><circle cx="5.11" cy="212.57" r="1.88"
      fill="#cfe9e4" opacity="0.11"/><circle cx="4.92" cy="22.01" r="0.54"
      fill="#cfe9e4" opacity="0.13"/><circle cx="29.16" cy="106.97" r="1.53"
      fill="#cfe9e4" opacity="0.16"/><circle cx="99.76" cy="37.1" r="0.8"
      fill="#cfe9e4" opacity="0.1"/><circle cx="100.91" cy="57.47" r="1.36"
      fill="#cfe9e4" opacity="0.19"/><circle cx="142.42" cy="5.79" r="1.52"
      fill="#cfe9e4" opacity="0.12"/><circle cx="208.95" cy="104.94" r="1.21"
      fill="#cfe9e4" opacity="0.14"/>
  <ellipse cx="130.97" cy="174.64" rx="65.28" ry="23.36"
     fill="#000" opacity="0.24"/>
    <g transform="translate(130.97 136.85) rotate(6.97) scale(1 1)">
      <path d="M -64.97 0 Q -24.99 -66.23 37.48 -19.87
               Q 62.47 0 37.48 22.52
               Q -24.99 60.94 -64.97 0 Z"
            fill="hsl(27 60% 46%)"/>
      <path d="M -64.97 0 L -107.45 -39.74
               L -97.46 0 L -107.45 39.74 Z" fill="hsl(27 60% 46%)"/>
      <path d="M -37.48 -47.69 L 2.5 -82.79
               L 19.99 -33.12 Z" fill="hsl(17 46% 34%)"/>
      <ellipse cx="2.5" cy="25.17" rx="24.99" ry="13.25"
               fill="hsl(39 34% 62%)" opacity="0.5"/>
      <ellipse cx="-49.98" cy="-7.95" rx="5.1"
      ry="27.76" fill="hsl(11 50% 26%)"
      opacity="0.35"/><ellipse cx="-29.15" cy="-7.95" rx="7.99"
      ry="26.44" fill="hsl(11 50% 26%)"
      opacity="0.52"/><ellipse cx="-8.33" cy="-7.95" rx="6.34"
      ry="25.5" fill="hsl(11 50% 26%)"
      opacity="0.49"/><ellipse cx="12.49" cy="-7.95" rx="6.44"
      ry="26.16" fill="hsl(11 50% 26%)"
      opacity="0.38"/><ellipse cx="33.32" cy="-7.95" rx="6.85"
      ry="27.78" fill="hsl(11 50% 26%)"
      opacity="0.35"/>
      <circle cx="34.98" cy="-18.55" r="4.07" fill="#f4f1e6"/>
      <circle cx="36.23" cy="-18.55" r="2.81" fill="#101418"/>
    </g>
</svg>