<svg xmlns="http://www.w3.org/2000/svg" width="256" height="256"
  viewBox="0 0 256 256" role="img" aria-label="rockfish example 3">
  <rect width="256" height="256" fill="hsl(203 34% 13%)"/>
    <ellipse cx="123.65" cy="74.98"
      rx="230.4" ry="179.2" fill="hsl(191 43% 24%)" opacity="0.5"/>
    <ellipse cx="124.16" cy="97.12" rx="26.94" ry="33.05"
      transform="rotate(0.88 124.16 97.12)"
      fill="hsl(217 39% 30%)"
      opacity="0.22"/><ellipse cx="98.48" cy="25.57" rx="14.76" ry="22.78"
      transform="rotate(22.49 98.48 25.57)"
      fill="hsl(205 35% 17%)"
      opacity="0.38"/><ellipse cx="199.75" cy="188.4" rx="53.18" ry="12.98"
      transform="rotate(78.15 199.75 188.4)"
      fill="hsl(222 27% 27%)"
      opacity="0.45"/><ellipse cx="94.32" cy="80.6" rx="23.14" ry="29.94"
      transform="rotate(9.68 94.32 80.6)"
      fill="hsl(205 43% 19%)"
      opacity="0.48"/><ellipse cx="10.44" cy="61.89" rx="41.39" ry="25.72"
      transform="rotate(94.17 10.44 61.89)"
      fill="hsl(218 31% 18%)"
      opacity="0.24"/><ellipse cx="160.44" cy="29.2" rx="34.72" ry="9.34"
      transform="rotate(83.5 160.44 29.2)"
      fill="hsl(208 41% 21%)"
      opacity="0.3"/><ellipse cx="168.1" cy="80.84" rx="50.03" ry="16.74"
      transform="rotate(1.18 168.1 80.84)"
      fill="hsl(209 38% 27%)"
      opacity="0.4"/><ellipse cx="86.93" cy="112.99" rx="44.3" ry="26.1"
      transform="rotate(1.25 86.93 112.99)"
      fill="hsl(209 29% 23%)"
      opacity="0.46"/><ellipse cx="245.16" cy="30.78" rx="45.81" ry="14.97"
      transform="rotate(49.52 245.16 30.78)"
      fill="hsl(200 30% 17%)"
      opacity="0.26"/><ellipse cx="20.99" cy="177.26" rx="21.26" ry="30.77"
      transform="rotate(172.71 20.99 177.26)"
      fill="hsl(208 39% 19%)"
      opacity="0.24"/><ellipse cx="112.98" cy="110.79" rx="47.85" ry="11.27"
      transform="rotate(173.83 112.98 110.79)"
      fill="hsl(220 41% 25%)"
      opacity="0.48"/><ellipse cx="188.12" cy="166.29" rx="17.72" ry="17.03"
      transform="rotate(59.89 188.12 166.29)"
      fill="hsl(219 41% 28%)"
      opacity="0.18"/><ellipse cx="18.17" cy="15.41" rx="47.51" ry="19.93"
      transform="rotate(50.98 18.17 15.41)"
      fill="hsl(212 32% 30%)"
      opacity="0.42"/><ellipse cx="191.36" cy="151.32" rx="28.31" ry="10.81"
      transform="rotate(72.97 191.36 151.32)"
      fill="hsl(210 28% 28%)"
      opacity="0.25"/><ellipse cx="149.83" cy="231.66" rx="43.89" ry="10.69"
      transform="rotate(170.22 149.83 231.66)"
      fill="hsl(204 25% 20%)"
      opacity="0.26"/><ellipse cx="91.81" cy="145.07" rx="51.63" ry="10.54"
      transform="rotate(172.2 91.81 145.07)"
      fill="hsl(199 36% 19%)"
      opacity="0.47"/><circle cx="77.3" cy="75.91" r="1.42"
      fill="#cfe9e4" opacity="0.19"/><circle cx="119.24" cy="230.48" r="0.48"
      fill="#cfe9e4" opacity="0.14"/><circle cx="136.25" cy="6.65" r="1.47"
      fill="#cfe9e4" opacity="0.06"/><circle cx="202.47" cy="225.65" r="0.75"
      fill="#cfe9e4" opacity="0.12"/><circle cx="72.66" cy="158.87" r="1.02"
      fill="#cfe9e4" opacity="0.05"/><circle cx="142.31" cy="95.5" r="1.11"
      fill="#cfe9e4" opacity="0.17"/><circle cx="198.69" cy="31.21" r="1.77"
      fill="#cfe9e4" opacity="0.19"/><circle cx="124.44" cy="27.01" r="0.71"
      fill="#cfe9e4" opacity="0.15"/><circle cx="43.82" cy="220.69" r="1.49"
      fill="#cfe9e4" opacity="0.13"/><circle cx="199.8" cy="38.72" r="1.45"
      fill="#cfe9e4" opacity="0.1"/><circle cx="104.51" cy="169.23" r="1.11"
      fill="#cfe9e4" opacity="0.13"/><circle cx="137.99" cy="166.89" r="0.76"
      fill="#cfe9e4" opacity="0.15"/><circle cx="106.2" cy="73.54" r="1.04"
      fill="#cfe9e4" opacity="0.17"/><circle cx="123.29" cy="35.27" r="0.45"
      fill="#cfe9e4" opacity="0.05"/><circle cx="154.88" cy="251.92" r="1"
      fill="#cfe9e4" opacity="0.14"/><circle cx="112.05" cy="19.4" r="1.55"
      fill="#cfe9e4" opacity="0.16"/><circle cx="155.33" cy="46.59" r="1.26"
      fill="#cfe9e4" opacity="0.14"/><circle cx="232.74" cy="14.02" r="1.79"
      fill="#cfe9e4" opacity="0.16"/><circle cx="111.35" cy="244.95" r="0.98"
      fill="#cfe9e4" opacity="0.1"/><circle cx="71.69" cy="104.34" r="0.72"
      fill="#cfe9e4" opacity="0.07"/><circle cx="37.53" cy="127.24" r="1.53"
      fill="#cfe9e4" opacity="0.16"/><circle cx="231.26" cy="67.9" r="1.2"
      fill="#cfe9e4" opacity="0.14"/><circle cx="108.15" cy="223.41" r="0.75"
      fill="#cfe9e4" opacity="0.19"/><circle cx="140.71" cy="169.43" r="1.58"
      fill="#cfe9e4" opacity="0.15"/><circle cx="104.1" cy="195.28" r="0.57"
      fill="#cfe9e4" opacity="0.08"/><circle cx="232.9" cy="93.09" r="1.73"
      fill="#cfe9e4" opacity="0.19"/><circle cx="245" cy="163.44" r="1.55"
      fill="#cfe9e4" opacity="0.07"/><circle cx="42.22" cy="85.42" r="0.98"
      fill="#cfe9e4" opacity="0.11"/><circle cx="254.04" cy="29.4" r="0.64"
      fill="#cfe9e4" opacity="0.16"/><circle cx="177.87" cy="22.59" r="1.41"
      fill="#cfe9e4" opacity="0.14"/><circle cx="197.46" cy="63.51" r="1.3"
      fill="#cfe9e4" opacity="0.17"/><circle cx="21.25" cy="114.12" r="1.63"
      fill="#cfe9e4" opacity="0.14"/><circle cx="189.89" cy="227.05" r="0.72"
      fill="#cfe9e4" opacity="0.08"/><circle cx="10.41" cy="186.16" r="1.32"
      fill="#cfe9e4" opacity="0.17"/><circle cx="223.77" cy="12.84" r="1.37"
      fill="#cfe9e4" opacity="0.12"/><circle cx="168.81" cy="159.92" r="0.59"
      fill="#cfe9e4" opacity="0.09"/><circle cx="144.58" cy="58.51" r="1.41"
      fill="#cfe9e4" opacity="0.21"/><circle cx="140.03" cy="117.28" r="1.23"
      fill="#cfe9e4" opacity="0.11"/><circle cx="15.71" cy="10.2" r="1.18"
      fill="#cfe9e4" opacity="0.14"/><circle cx="231.47" cy="245.24" r="1"
      fill="#cfe9e4" opacity="0.07"/>
  <ellipse cx="119.69" cy="152.89" rx="64.24" ry="22.99"
     fill="#000" opacity="0.24"/>
    <g transform="translate(119.69 115.7) rotate(9.73) scale(-1 1)">
      <path d="M -63.93 0 Q -24.59 -59.08 36.88 -17.72
               Q 61.47 0 36.88 20.09
               Q -24.59 54.35 -63.93 0 Z"
            fill="hsl(24 47% 51%)"/>
      <path d="M -63.93 0 L -105.73 -35.45
               L -95.9 0 L -105.73 35.45 Z" fill="hsl(24 47% 51%)"/>
      <path d="M -36.88 -42.54 L 2.46 -73.85
               L 19.67 -29.54 Z" fill="hsl(14 46% 34%)"/>
      <ellipse cx="2.46" cy="22.45" rx="24.59" ry="11.82"
               fill="hsl(36 34% 62%)" opacity="0.5"/>
      <ellipse cx="-49.18" cy="-7.09" rx="4.68"
      ry="22.79" fill="hsl(8 50% 26%)"
      opacity="0.33"/><ellipse cx="-28.69" cy="-7.09" rx="7.65"
      ry="23.93" fill="hsl(8 50% 26%)"
      opacity="0.4"/><ellipse cx="-8.2" cy="-7.09" rx="7.66"
      ry="30.79" fill="hsl(8 50% 26%)"
      opacity="0.53"/><ellipse cx="12.29" cy="-7.09" rx="5.91"
      ry="21.8" fill="hsl(8 50% 26%)"
      opacity="0.34"/><ellipse cx="32.78" cy="-7.09" rx="7.06"
      ry="20.57" fill="hsl(8 50% 26%)"
      opacity="0.39"/><ellipse cx="53.28" cy="-7.09" rx="5.15"
      ry="21.22" fill="hsl(8 50% 26%)"
      opacity="0.39"/>
      <circle cx="34.42" cy="-16.54" r="4.48" fill="#f4f1e6"/>
      <circle cx="35.65" cy="-16.54" r="2.91" fill="#101418"/>
    </g>
</svg>