<svg xmlns="http://www.w3.org/2000/svg" width="256" height="256"
  viewBox="0 0 256 256" role="img" aria-label="sea-cucumber example 8">
  <rect width="256" height="256" fill="hsl(194 34% 17%)"/>
    <ellipse cx="172.75" cy="64.93"
      rx="230.4" ry="179.2" fill="hsl(182 33% 29%)" opacity="0.5"/>
    <ellipse cx="12.39" cy="122.91" rx="14.29" ry="36.33"
      transform="rotate(15.23 12.39 122.91)"
      fill="hsl(189 36% 17%)"
      opacity="0.47"/><ellipse cx="45.57" cy="99.48" rx="35.88" ry="31.05"
      transform="rotate(31.53 45.57 99.48)"
      fill="hsl(204 36% 23%)"
      opacity="0.3"/><ellipse cx="9.45" cy="61.67" rx="32.76" ry="8.77"
      transform="rotate(121.12 9.45 61.67)"
      fill="hsl(206 34% 19%)"
      opacity="0.22"/><ellipse cx="176.19" cy="205.96" rx="31.48" ry="12.2"
      transform="rotate(73.33 176.19 205.96)"
      fill="hsl(196 31% 30%)"
      opacity="0.27"/><ellipse cx="236.67" cy="52.42" rx="17.53" ry="9.6"
      transform="rotate(155.37 236.67 52.42)"
      fill="hsl(203 34% 18%)"
      opacity="0.31"/><ellipse cx="198.74" cy="81.61" rx="45.88" ry="16.03"
      transform="rotate(41.14 198.74 81.61)"
      fill="hsl(193 29% 20%)"
      opacity="0.25"/><ellipse cx="226.19" cy="249.03" rx="32.65" ry="15.43"
      transform="rotate(163.39 226.19 249.03)"
      fill="hsl(196 35% 21%)"
      opacity="0.22"/><ellipse cx="18.44" cy="54.81" rx="35.73" ry="14.29"
      transform="rotate(86.92 18.44 54.81)"
      fill="hsl(189 30% 14%)"
      opacity="0.33"/><ellipse cx="127.57" cy="117.58" rx="35.22" ry="24.77"
      transform="rotate(39.97 127.57 117.58)"
      fill="hsl(205 39% 22%)"
      opacity="0.4"/><ellipse cx="208.37" cy="124.1" rx="18.57" ry="32.24"
      transform="rotate(167.21 208.37 124.1)"
      fill="hsl(193 30% 23%)"
      opacity="0.19"/><ellipse cx="103.85" cy="132.88" rx="40.13" ry="10.95"
      transform="rotate(160.31 103.85 132.88)"
      fill="hsl(190 25% 26%)"
      opacity="0.42"/><ellipse cx="32.28" cy="109.47" rx="13.18" ry="36.7"
      transform="rotate(50.91 32.28 109.47)"
      fill="hsl(188 26% 21%)"
      opacity="0.24"/><ellipse cx="182.32" cy="205.76" rx="32.68" ry="16.12"
      transform="rotate(11.23 182.32 205.76)"
      fill="hsl(211 38% 23%)"
      opacity="0.43"/><ellipse cx="239.14" cy="33.75" rx="40.33" ry="24.22"
      transform="rotate(131.67 239.14 33.75)"
      fill="hsl(197 25% 16%)"
      opacity="0.4"/><ellipse cx="53.04" cy="63.71" rx="39.79" ry="33.52"
      transform="rotate(172.94 53.04 63.71)"
      fill="hsl(196 43% 18%)"
      opacity="0.33"/><ellipse cx="3.15" cy="195.62" rx="44.34" ry="32.27"
      transform="rotate(138 3.15 195.62)"
      fill="hsl(203 25% 28%)"
      opacity="0.43"/><circle cx="73.65" cy="109.57" r="0.75"
      fill="#cfe9e4" opacity="0.19"/><circle cx="252.9" cy="241.27" r="0.46"
      fill="#cfe9e4" opacity="0.11"/><circle cx="26.15" cy="19.06" r="1.6"
      fill="#cfe9e4" opacity="0.14"/><circle cx="11.44" cy="118.25" r="0.92"
      fill="#cfe9e4" opacity="0.07"/><circle cx="178.59" cy="7.34" r="0.51"
      fill="#cfe9e4" opacity="0.08"/><circle cx="35.41" cy="236.9" r="1.84"
      fill="#cfe9e4" opacity="0.08"/><circle cx="151.97" cy="224.8" r="1.26"
      fill="#cfe9e4" opacity="0.17"/><circle cx="203.7" cy="194.18" r="1.16"
      fill="#cfe9e4" opacity="0.08"/><circle cx="220.85" cy="66.23" r="0.99"
      fill="#cfe9e4" opacity="0.21"/><circle cx="200.47" cy="243.19" r="1.54"
      fill="#cfe9e4" opacity="0.18"/><circle cx="217.8" cy="248.48" r="0.74"
      fill="#cfe9e4" opacity="0.09"/><circle cx="158.61" cy="211.74" r="0.9"
      fill="#cfe9e4" opacity="0.08"/><circle cx="231.04" cy="235.16" r="1.52"
      fill="#cfe9e4" opacity="0.06"/><circle cx="85.03" cy="160.46" r="1.05"
      fill="#cfe9e4" opacity="0.06"/><circle cx="149.71" cy="53.83" r="0.47"
      fill="#cfe9e4" opacity="0.21"/><circle cx="180.36" cy="125.82" r="0.97"
      fill="#cfe9e4" opacity="0.15"/><circle cx="185.31" cy="193.43" r="1.14"
      fill="#cfe9e4" opacity="0.15"/><circle cx="10.74" cy="195.4" r="0.8"
      fill="#cfe9e4" opacity="0.21"/><circle cx="25.52" cy="47.64" r="1.01"
      fill="#cfe9e4" opacity="0.06"/><circle cx="123.9" cy="240.16" r="1.7"
      fill="#cfe9e4" opacity="0.17"/><circle cx="144.34" cy="11.15" r="0.86"
      fill="#cfe9e4" opacity="0.16"/><circle cx="125.57" cy="166.21" r="1.69"
      fill="#cfe9e4" opacity="0.06"/><circle cx="192.43" cy="135" r="0.51"
      fill="#cfe9e4" opacity="0.16"/><circle cx="145.61" cy="91.79" r="1.81"
      fill="#cfe9e4" opacity="0.19"/><circle cx="222.45" cy="132.23" r="1.89"
      fill="#cfe9e4" opacity="0.09"/><circle cx="255.54" cy="202.32" r="1.26"
      fill="#cfe9e4" opacity="0.17"/><circle cx="246.78" cy="254.96" r="0.66"
      fill="#cfe9e4" opacity="0.09"/><circle cx="248.95" cy="152.84" r="0.57"
      fill="#cfe9e4" opacity="0.13"/><circle cx="103.61" cy="13.66" r="0.48"
      fill="#cfe9e4" opacity="0.13"/><circle cx="141.68" cy="8.2" r="1.87"
      fill="#cfe9e4" opacity="0.07"/><circle cx="123.54" cy="78.48" r="0.46"
      fill="#cfe9e4" opacity="0.1"/><circle cx="39.99" cy="154.88" r="0.69"
      fill="#cfe9e4" opacity="0.19"/><circle cx="36.68" cy="56.32" r="1.43"
      fill="#cfe9e4" opacity="0.14"/><circle cx="137.91" cy="172.06" r="0.65"
      fill="#cfe9e4" opacity="0.18"/><circle cx="5.53" cy="171.24" r="0.55"
      fill="#cfe9e4" opacity="0.2"/><circle cx="100.32" cy="97.56" r="1.45"
      fill="#cfe9e4" opacity="0.18"/><circle cx="57.84" cy="154.64" r="1.75"
      fill="#cfe9e4" opacity="0.1"/><circle cx="89.13" cy="253.4" r="1.31"
      fill="#cfe9e4" opacity="0.18"/><circle cx="80.88" cy="135.54" r="0.91"
      fill="#cfe9e4" opacity="0.19"/><circle cx="122.38" cy="213.98" r="1.45"
      fill="#cfe9e4" opacity="0.12"/>
  <ellipse cx="127.59" cy="173.45" rx="67.14" ry="24.03"
     fill="#000" opacity="0.24"/>
    <g transform="translate(127.59 134.58) rotate(9.52)">
      <path d="M -62.19 11.24 L -61.35 33.71"
      stroke="hsl(54 52% 44%)" stroke-width="3.6" stroke-linecap="round"/><path d="M -55.28 -9.83 L -56.69 -29.5"
      stroke="hsl(54 52% 44%)" stroke-width="4.48" stroke-linecap="round"/><path d="M -48.37 14.08 L -48.54 42.25"
      stroke="hsl(54 52% 44%)" stroke-width="2.79" stroke-linecap="round"/><path d="M -41.46 -12.79 L -41.85 -38.36"
      stroke="hsl(54 52% 44%)" stroke-width="4.12" stroke-linecap="round"/><path d="M -34.55 10.82 L -31.73 32.47"
      stroke="hsl(54 52% 44%)" stroke-width="3.08" stroke-linecap="round"/><path d="M -27.64 -9.56 L -26.59 -28.69"
      stroke="hsl(54 52% 44%)" stroke-width="4.31" stroke-linecap="round"/><path d="M -20.73 12.87 L -20.46 38.62"
      stroke="hsl(54 52% 44%)" stroke-width="4.08" stroke-linecap="round"/><path d="M -13.82 -12.1 L -13.99 -36.31"
      stroke="hsl(54 52% 44%)" stroke-width="4.48" stroke-linecap="round"/><path d="M -6.91 12.95 L -9.12 38.85"
      stroke="hsl(54 52% 44%)" stroke-width="3.57" stroke-linecap="round"/><path d="M 0 -13.49 L 2.13 -40.47"
      stroke="hsl(54 52% 44%)" stroke-width="3.75" stroke-linecap="round"/><path d="M 6.91 10.82 L 8.28 32.47"
      stroke="hsl(54 52% 44%)" stroke-width="3.81" stroke-linecap="round"/><path d="M 13.82 -12.29 L 11.28 -36.87"
      stroke="hsl(54 52% 44%)" stroke-width="3.44" stroke-linecap="round"/><path d="M 20.73 11.45 L 18.79 34.36"
      stroke="hsl(54 52% 44%)" stroke-width="3.72" stroke-linecap="round"/><path d="M 27.64 -13.61 L 27.95 -40.84"
      stroke="hsl(54 52% 44%)" stroke-width="3.5" stroke-linecap="round"/><path d="M 34.55 12.98 L 35.42 38.95"
      stroke="hsl(54 52% 44%)" stroke-width="3.85" stroke-linecap="round"/><path d="M 41.46 -11.68 L 39.99 -35.03"
      stroke="hsl(54 52% 44%)" stroke-width="3.28" stroke-linecap="round"/><path d="M 48.37 13.03 L 45.43 39.1"
      stroke="hsl(54 52% 44%)" stroke-width="2.95" stroke-linecap="round"/><path d="M 55.28 -15.3 L 55.38 -45.89"
      stroke="hsl(54 52% 44%)" stroke-width="3.89" stroke-linecap="round"/><path d="M 62.19 11.71 L 64.39 35.13"
      stroke="hsl(54 52% 44%)" stroke-width="4.51" stroke-linecap="round"/>
      <rect x="-70.67" y="-34.49" width="141.34" height="68.98"
            rx="34.49" fill="hsl(44 62% 41%)"/>
      <rect x="-64.67" y="-18.97" width="129.34" height="20.69"
            rx="10.35" fill="hsl(58 40% 50%)" opacity="0.35"/>
    </g>
</svg>